<?xml version="1.0" encoding="utf-8"?>
<!-- Generator: Adobe Illustrator 17.1.0, SVG Export Plug-In . SVG Version: 6.00 Build 0)  -->
<!DOCTYPE svg PUBLIC "-//W3C//DTD SVG 1.1//EN" "http://www.w3.org/Graphics/SVG/1.1/DTD/svg11.dtd">
<svg version="1.1" id="Layer_1" xmlns="http://www.w3.org/2000/svg" xmlns:xlink="http://www.w3.org/1999/xlink" x="0px" y="0px"
	 viewBox="0 0 640 640" enable-background="new 0 0 640 640" xml:space="preserve">
<path fill="#848486" d="M566,193H66c-27.6,0-50,22.4-50,50v280c0,27.6,22.4,50,50,50h500c27.6,0,50-22.4,50-50V243
	C616,215.4,593.6,193,566,193z M566.3,501c0,22.1-16.5,40-36.8,40H106.8C86.5,541,70,523.1,70,501V261c0-22.1,16.5-40,36.8-40h422.8
	c20.3,0,36.8,17.9,36.8,40V501z"/>
<image display="none" overflow="visible" width="100" height="108" xlink:href="../images/tải xuống.png"  transform="matrix(6.3952 0 0 6.3952 7 0)">
</image>
<path fill="#EA2127" d="M75,359.3c0,0,228,145.7,256.5,181.7c18-99,68.3-276,282.4-504c-195.4,186-219,208.5-269.4,282
	c-38.5,87-34,135.3-124,75.9L75,359.3z"/>
<text transform="matrix(1.1353 0 0 1 221.041 619.1367)" fill="#848486" font-family="'Tahoma-Bold'" font-size="48">VP9.TV</text>
</svg>
