<svg width="100" height="100" xmlns="http://www.w3.org/2000/svg">
 <g>
  <title>Layer 1</title>
  <path stroke="#000000" d="m95.966995,51.790371c0,2.972504 -2.092224,5.384975 -4.675377,5.384975c-0.011696,0 -0.028053,0 -0.046761,0l-8.66581,0l0,0.670422c0,0.554649 -0.093513,1.077 -0.229103,1.580502l0,26.38903c0,2.972511 -2.094559,5.384987 -4.675369,5.384987l-15.353954,0c-2.580814,0 -4.675388,-2.412476 -4.675388,-5.384987l0,-15.180214c0,-4.948784 -3.497181,-8.974068 -7.791523,-8.974068c-4.296673,0 -7.793858,4.025284 -7.793858,8.974068l0,15.180214c0,2.972511 -2.09457,5.384987 -4.675385,5.384987l-15.353952,0c-2.580805,0 -4.675379,-2.412476 -4.675379,-5.384987l0,-28.639954l-8.894917,0c-1.973012,0 -3.735629,-1.421631 -4.401872,-3.559475c-0.663904,-2.140522 -0.100521,-4.528755 1.418979,-5.977306l41.3935,-39.412609c1.729881,-1.645108 4.22654,-1.645108 5.956425,0l12.803539,12.18619l0,-0.263865c0,-2.9725 2.094574,-5.384972 4.675385,-5.384972l7.597488,0c2.580818,0 4.675392,2.41247 4.675392,5.384972l0,16.39994l11.262985,10.724163c1.278725,0.963909 2.124962,2.627869 2.124962,4.517986l-0.000008,0z" id="svg_1" fill="#ffffff" stroke-width="3"/>
 </g>
</svg>